<svg xmlns="http://www.w3.org/2000/svg" viewBox="0 0 200 200">
  <circle cx="100" cy="100" r="96" fill="white" stroke="#e0e0e0" stroke-width="0.5"/>
  <g fill="none" stroke="#1a7d7d" stroke-linecap="round" stroke-linejoin="round">

    <!-- Beak -->
    <path d="M 126 87 L 162 76" stroke-width="3.5"/>

    <!-- Head -->
    <circle cx="120" cy="91" r="8" stroke-width="3.5" fill="white"/>
    <circle cx="123" cy="89" r="2.5" fill="#1a7d7d" stroke="none"/>

    <!-- Body: smooth teardrop from neck down to tail base -->
    <path d="M 114 97 C 108 106 100 114 92 118 C 84 122 80 128 88 134 C 96 140 108 132 114 120 C 120 108 118 100 114 97" stroke-width="3.5" fill="white"/>

    <!-- Tail feathers fanning left-down, staying in circle -->
    <path d="M 90 132 C 80 138 70 142 62 150" stroke-width="3"/>
    <path d="M 88 136 C 76 144 66 150 58 158" stroke-width="2.8"/>
    <path d="M 92 138 C 84 148 78 155 74 162" stroke-width="2.5"/>

    <!-- Wing: large outer arc sweeping up-left -->
    <path d="M 112 95 C 100 78 78 58 54 50 C 40 46 34 58 42 72 C 50 86 72 94 92 100" stroke-width="3.8"/>
    <!-- Feather lines 1 -->
    <path d="M 110 98 C 98 82 78 64 56 58 C 44 54 38 65 46 78 C 54 90 74 97 92 101" stroke-width="2.8"/>
    <!-- Feather lines 2 -->
    <path d="M 108 101 C 97 87 80 72 62 67 C 51 64 46 74 53 85 C 60 96 78 101 92 103" stroke-width="2.4"/>
    <!-- Feather lines 3 -->
    <path d="M 106 104 C 96 92 82 80 66 76 C 57 73 53 82 59 92 C 65 101 82 105 92 105" stroke-width="2"/>

  </g>
</svg>